<svg width="511" height="511" viewBox="0 0 511 511" fill="none" xmlns="http://www.w3.org/2000/svg">
<rect width="511" height="511" rx="122.196" fill="#0C0E12"/>
<path d="M296.426 255.345L357.504 182.777C368.523 169.682 366.742 150.203 353.515 139.293C340.289 128.384 320.613 130.148 309.594 143.243L255.913 207.011L202.349 143.147C191.349 130.033 171.693 128.231 158.428 139.121C145.182 150.011 143.362 169.49 154.361 182.604L215.304 255.268L154.226 327.836C143.207 340.931 144.988 360.41 158.215 371.32C171.442 382.229 191.117 380.465 202.136 367.37L255.817 303.602L309.381 367.466C320.381 380.58 340.037 382.382 353.302 371.492C366.548 360.602 368.368 341.123 357.369 328.009L296.426 255.345Z" fill="#ADFF00"/>
</svg>
