<svg width="1062" height="1061" viewBox="0 0 1062 1061" fill="none" xmlns="http://www.w3.org/2000/svg">
<rect width="1060.55" height="1060.55" transform="translate(0.48291)" fill="white"/>
<path d="M620.481 436.756C607.16 436.756 594.731 440.585 584.242 447.213C584.22 447.224 584.199 447.245 584.178 447.256C581.474 441.582 575.789 437.583 569.086 437.583C559.796 437.583 552.266 445.113 552.266 454.393C552.266 454.435 552.287 454.457 552.287 454.499H552.266V606.985C552.266 616.276 559.796 623.795 569.086 623.795C578.377 623.795 585.896 616.265 585.896 606.985V563.29C596.024 569.283 607.85 572.729 620.481 572.729C658.024 572.729 688.473 542.292 688.473 504.737C688.473 467.183 658.035 436.745 620.481 436.745V436.756ZM620.481 539.322C601.38 539.322 585.896 523.838 585.896 504.737C585.896 485.637 601.38 470.153 620.481 470.153C639.581 470.153 655.065 485.637 655.065 504.737C655.065 523.838 639.581 539.322 620.481 539.322Z" fill="black"/>
<path d="M333.856 478.892C336.762 481.437 340.517 483.06 344.685 483.06C344.685 483.06 344.695 483.06 344.706 483.06C344.706 483.06 344.716 483.06 344.727 483.06C353.699 483.06 360.985 475.784 360.985 466.801C360.985 466.759 360.985 466.717 360.985 466.664C360.985 466.611 360.985 466.558 360.985 466.515C360.985 461.679 358.917 457.734 355.598 454.711C355.439 454.563 355.269 454.414 355.099 454.276C310.842 415.206 238.969 445.548 238.979 504.939C238.979 514.367 240.952 523.424 244.516 531.622C249.861 543.925 258.716 554.265 269.81 561.562C275.356 565.21 281.465 568.095 287.988 570.067C294.499 572.04 301.425 573.1 308.541 573.1C317.322 573.1 325.786 571.499 333.581 568.551C339.594 566.281 345.194 563.205 350.274 559.483C350.274 559.483 351.599 558.571 352.893 557.542C353.18 557.319 353.455 557.086 353.742 556.842C353.986 556.63 354.208 556.429 354.41 556.238C354.484 556.163 354.569 556.089 354.643 556.015C356.711 554.021 358.376 551.614 359.32 548.962C359.914 547.318 360.253 545.547 360.253 543.691C360.253 539.46 358.641 535.61 355.99 532.715C355.799 532.503 355.598 532.29 355.386 532.078C354.622 531.325 353.774 530.647 352.861 530.063C350.316 528.398 347.262 527.433 343.995 527.433C343.932 527.433 343.868 527.433 343.804 527.433C343.794 527.433 343.783 527.433 343.773 527.433C339.785 527.433 336.19 529.035 333.347 531.442C330.081 534.274 326.273 536.564 322.095 538.145C317.916 539.725 313.377 540.595 308.552 540.595C303.334 540.595 298.434 539.576 293.98 537.742C287.298 534.995 281.635 530.392 277.69 524.697C275.717 521.855 274.169 518.737 273.108 515.428C272.047 512.119 271.485 508.619 271.485 504.939C271.507 473.621 310.376 457.776 333.856 478.892Z" fill="black"/>
<path d="M507.341 438.05C499.355 437.838 492.929 443.406 491.136 450.787C491.115 450.883 491.062 451.116 491.051 451.201C491.051 451.201 490.839 451.021 490.744 450.946C479.035 441.741 464.728 436.756 449.86 436.756C449.86 436.756 449.86 436.756 449.849 436.756C449.849 436.756 449.838 436.756 449.828 436.756C401.753 436.756 369.661 486.804 388.082 531.41C398.349 556.259 422.359 573.207 449.838 573.207C449.838 573.207 449.838 573.207 449.849 573.207C449.849 573.207 449.86 573.207 449.87 573.207C464.272 573.207 478.717 568.498 490.818 558.963C490.818 558.963 491.062 558.772 491.157 558.709L491.21 558.974C491.232 559.101 491.263 559.218 491.295 559.335C493.3 566.472 499.674 571.764 507.532 571.467C516.452 571.139 523.462 563.683 523.462 554.753V454.764C523.462 445.771 516.356 438.273 507.363 438.039L507.341 438.05ZM449.849 540.139C431.12 540.128 415.943 524.432 415.943 504.981C415.943 485.605 431.056 469.835 449.849 469.824C461.388 469.824 471.686 475.795 477.869 485.181C493.225 508.481 477.01 540.128 449.849 540.128V540.139Z" fill="black"/>
<path d="M785.121 505.002L818.57 464.861C824.605 457.617 823.629 446.842 816.386 440.807C809.142 434.773 798.367 435.749 792.332 442.992L762.934 478.266L733.599 442.939C727.575 435.685 716.811 434.688 709.546 440.712C702.292 446.736 701.295 457.511 707.319 464.765L740.694 504.96L707.244 545.102C701.21 552.345 702.186 563.121 709.429 569.155C716.673 575.19 727.448 574.214 733.482 566.97L762.881 531.697L792.216 567.024C798.24 574.278 809.004 575.275 816.269 569.251C823.523 563.227 824.52 552.452 818.496 545.197L785.121 505.002Z" fill="#8DBC1A"/>
</svg>
