<svg width="1061" height="1061" viewBox="0 0 1061 1061" fill="none" xmlns="http://www.w3.org/2000/svg">
<rect width="1060.55" height="1060.55" fill="black"/>
<path d="M619.998 436.756C606.677 436.756 594.248 440.585 583.759 447.213C583.738 447.224 583.716 447.245 583.695 447.256C580.991 441.582 575.306 437.583 568.604 437.583C559.313 437.583 551.783 445.113 551.783 454.393C551.783 454.435 551.804 454.457 551.804 454.499H551.783V606.985C551.783 616.276 559.313 623.795 568.604 623.795C577.894 623.795 585.413 616.265 585.413 606.985V563.29C595.541 569.283 607.367 572.729 619.998 572.729C657.541 572.729 687.99 542.292 687.99 504.737C687.99 467.183 657.552 436.745 619.998 436.745V436.756ZM619.998 539.322C600.897 539.322 585.413 523.838 585.413 504.737C585.413 485.637 600.897 470.153 619.998 470.153C639.098 470.153 654.582 485.637 654.582 504.737C654.582 523.838 639.098 539.322 619.998 539.322Z" fill="#FEFEFE"/>
<path d="M333.373 478.892C336.279 481.437 340.034 483.06 344.202 483.06C344.202 483.06 344.212 483.06 344.223 483.06C344.223 483.06 344.233 483.06 344.244 483.06C353.216 483.06 360.502 475.784 360.502 466.801C360.502 466.759 360.502 466.717 360.502 466.664C360.502 466.611 360.502 466.558 360.502 466.515C360.502 461.679 358.434 457.734 355.115 454.711C354.956 454.563 354.786 454.414 354.616 454.276C310.36 415.206 238.486 445.548 238.497 504.939C238.497 514.367 240.469 523.424 244.033 531.622C249.378 543.925 258.233 554.265 269.327 561.562C274.873 565.21 280.982 568.095 287.505 570.067C294.016 572.04 300.942 573.1 308.058 573.1C316.839 573.1 325.303 571.499 333.098 568.551C339.111 566.281 344.711 563.205 349.791 559.483C349.791 559.483 351.116 558.571 352.41 557.542C352.697 557.319 352.972 557.086 353.259 556.842C353.503 556.63 353.725 556.429 353.927 556.238C354.001 556.163 354.086 556.089 354.16 556.015C356.228 554.021 357.893 551.614 358.837 548.962C359.431 547.318 359.771 545.547 359.771 543.691C359.771 539.46 358.159 535.61 355.507 532.715C355.316 532.503 355.115 532.29 354.903 532.078C354.139 531.325 353.291 530.647 352.379 530.063C349.833 528.398 346.779 527.433 343.512 527.433C343.449 527.433 343.385 527.433 343.321 527.433C343.311 527.433 343.3 527.433 343.29 527.433C339.302 527.433 335.707 529.035 332.864 531.442C329.598 534.274 325.791 536.564 321.612 538.145C317.433 539.725 312.894 540.595 308.069 540.595C302.851 540.595 297.951 539.576 293.497 537.742C286.815 534.995 281.152 530.392 277.207 524.697C275.234 521.855 273.686 518.737 272.625 515.428C271.565 512.119 271.002 508.619 271.002 504.939C271.024 473.621 309.893 457.776 333.373 478.892Z" fill="#FEFEFE"/>
<path d="M506.858 438.05C498.873 437.838 492.446 443.406 490.653 450.787C490.632 450.883 490.579 451.116 490.568 451.201C490.568 451.201 490.356 451.021 490.261 450.946C478.552 441.741 464.246 436.756 449.377 436.756C449.377 436.756 449.377 436.756 449.366 436.756C449.366 436.756 449.355 436.756 449.345 436.756C401.27 436.756 369.178 486.804 387.6 531.41C397.866 556.259 421.877 573.207 449.355 573.207C449.355 573.207 449.355 573.207 449.366 573.207C449.366 573.207 449.377 573.207 449.387 573.207C463.79 573.207 478.234 568.498 490.335 558.963C490.335 558.963 490.579 558.772 490.674 558.709L490.727 558.974C490.749 559.101 490.781 559.218 490.812 559.335C492.817 566.472 499.191 571.764 507.049 571.467C515.969 571.139 522.979 563.683 522.979 554.753V454.764C522.979 445.771 515.873 438.273 506.88 438.039L506.858 438.05ZM449.366 540.139C430.637 540.128 415.46 524.432 415.46 504.981C415.46 485.605 430.573 469.835 449.366 469.824C460.905 469.824 471.203 475.795 477.386 485.181C492.743 508.481 476.527 540.128 449.366 540.128V540.139Z" fill="#FEFEFE"/>
<path d="M784.638 505.002L818.088 464.861C824.123 457.617 823.147 446.842 815.903 440.807C808.66 434.773 797.885 435.749 791.85 442.992L762.452 478.266L733.117 442.939C727.093 435.685 716.328 434.688 709.063 440.712C701.809 446.736 700.812 457.511 706.836 464.765L740.212 504.96L706.762 545.102C700.727 552.345 701.703 563.121 708.947 569.155C716.19 575.19 726.966 574.214 733 566.97L762.398 531.697L791.733 567.024C797.757 574.278 808.522 575.275 815.787 569.251C823.041 563.227 824.038 552.452 818.014 545.197L784.638 505.002Z" fill="#8DBC1A"/>
</svg>
